<?xml version="1.0" encoding="UTF-8"?><svg xmlns="http://www.w3.org/2000/svg" viewBox="0 0 33.45 42.13"><defs><style>.d,.e{stroke-width:.4px;}.d,.e,.f,.g{stroke:#231f20;stroke-miterlimit:10;}.d,.g{fill:none;}.e,.h{fill:#454545;}.i{fill:#5a5858;}.j{fill:#505050;}.k{fill:#606161;}.f{fill:#065399;stroke-width:.5px;}.l{fill:#231f20;}.g{stroke-width:.75px;}</style></defs><g id="a"/><g id="b"><g id="c"><g><g><path class="h" d="M16.71,41.41c-7.99,0-14.5-2.52-14.97-5.69-.02,.12-.05,.24-.05,.36,0,3.34,6.72,6.05,15.01,6.05s15.01-2.71,15.01-6.05c0-.12-.03-.24-.05-.36-.47,3.17-6.98,5.69-14.97,5.69Z"/><path class="i" d="M31.68,35.73c.02-.12,.05-.24,.05-.36,0-2.96-5.3-5.43-12.29-5.94,.04,.24,.09,.48,.14,.73,6.64,.52,11.7,2.79,12.11,5.57Z"/><path class="i" d="M13.79,30.16c.04-.24,.08-.48,.12-.73-6.95,.53-12.21,2.98-12.21,5.94,0,.12,.03,.24,.05,.36,.41-2.77,5.44-5.04,12.05-5.57Z"/><path class="i" d="M19.57,30.15c.24,1.15,.62,2.41,1.24,3.57H11.97c.83-.19,1.47-1.68,1.82-3.57-6.61,.52-11.64,2.8-12.05,5.57,.47,3.17,6.98,5.69,14.97,5.69s14.5-2.52,14.97-5.69c-.41-2.78-5.47-5.06-12.11-5.57Z"/><path class="j" d="M13.91,29.43c.91-.07,1.84-.11,2.8-.11s1.84,.04,2.72,.1c-.16-.95-.22-1.76-.24-2.29h-5.09c-.02,.77-.08,1.55-.19,2.29Z"/><path class="j" d="M13.91,29.43c-.04,.25-.08,.49-.12,.73,.95-.08,1.92-.12,2.92-.12s1.93,.04,2.86,.11c-.05-.25-.1-.49-.14-.73-.88-.07-1.79-.1-2.72-.1s-1.89,.04-2.8,.11Z"/><path class="j" d="M11.97,33.73h8.84c-.62-1.16-1-2.43-1.24-3.57-.93-.07-1.88-.11-2.86-.11s-1.98,.04-2.92,.12c-.36,1.89-.99,3.38-1.82,3.57Z"/><path class="k" d="M31.74,22.15H1.71c-.74,0-1.34,.6-1.34,1.34v2.31c0,.74,.6,1.34,1.34,1.34H14.1c0-.21,.02-.43,.02-.64h5.05s0,.24,.01,.64h12.55c.74,0,1.34-.6,1.34-1.34v-2.31c0-.74-.6-1.34-1.34-1.34Z"/><path class="k" d="M19.18,26.5h-5.05c0,.21-.02,.42-.02,.64h5.09c-.02-.39-.01-.64-.01-.64Z"/></g><rect class="g" x=".38" y=".38" width="32.7" height="22.44" rx="1.38" ry="1.38"/><line class="e" x1="25.65" y1="11.04" x2="29.42" y2="11.04"/><line class="e" x1="16.18" y1="6.19" x2="16.18" y2="2.34"/><line class="e" x1="12.17" y1="7.41" x2="12.17" y2="3.56"/><path class="d" d="M12.45,16.92v2.32c0,.38-.27,.69-.64,.74-.92,.12-2.48-.08-2.48-.08"/><path class="d" d="M22.99,15.28v3.38c0,.34,.27,.61,.59,.61h3.2"/><line class="e" x1="18.3" y1="16.61" x2="18.3" y2="19.92"/><path class="d" d="M9.69,6.84v-2.32c0-.4-.32-.72-.71-.72h-3.57"/><path class="d" d="M20.63,6.84v-2.32c0-.4,.32-.72,.71-.72h3.57"/><path class="d" d="M8.54,7.68H3.82c-.39,0-.71-.3-.71-.67v-1.16"/><path class="d" d="M8.61,13.86H3.9c-.39,0-.71,.3-.71,.67v1.16"/><path class="d" d="M22.78,8.79h4.72c.39,0,.71-.3,.71-.67v-1.16"/><path class="d" d="M21.19,13.85h4.72c.39,0,.71,.3,.71,.67v1.16"/><path class="f" d="M24.91,8.32c.15-.38-1.86-2.97-4.53-2.13-.41-2-2.19-2.69-3.99-1.86-1.8-.83-3.57-.14-3.99,1.86-2.68-.84-4.68,1.75-4.53,2.13-1.56,.99-1.41,3.57-.45,4.26-.07,1.29,1.56,3.88,3.72,2.36-.15,2.59,2.3,3.27,3.34,1.67,.07,.1,.15,.19,.24,.28,.35,.6,1,.81,1.67,.75,.67,.06,1.32-.15,1.67-.75,.09-.09,.17-.18,.24-.28,1.04,1.6,3.49,.91,3.34-1.67,2.16,1.52,3.79-1.06,3.72-2.36,.97-.68,1.11-3.27-.45-4.26Z"/><ellipse class="l" cx="5.42" cy="3.8" rx=".62" ry=".69"/><ellipse class="l" cx="3.19" cy="16.08" rx=".62" ry=".69"/><ellipse class="l" cx="3.11" cy="5.48" rx=".62" ry=".69"/><ellipse class="l" cx="9.07" cy="19.92" rx=".62" ry=".69"/><ellipse class="l" cx="12.17" cy="3.3" rx=".62" ry=".69"/><ellipse class="l" cx="16.17" cy="2.07" rx=".62" ry=".69"/><ellipse class="l" cx="25.23" cy="3.8" rx=".62" ry=".69"/><ellipse class="l" cx="18.3" cy="20.19" rx=".62" ry=".69"/><ellipse class="l" cx="26.91" cy="19.28" rx=".62" ry=".69"/><ellipse class="l" cx="28.16" cy="6.72" rx=".62" ry=".69"/><ellipse class="l" cx="29.54" cy="11.04" rx=".62" ry=".69"/><ellipse class="l" cx="26.62" cy="16.08" rx=".62" ry=".69"/></g></g></g></svg>