<?xml version="1.0" encoding="UTF-8"?><svg xmlns="http://www.w3.org/2000/svg" viewBox="0 0 28.32 35.28"><defs><style>.d{fill:none;}.d,.e{stroke:#231f20;stroke-miterlimit:10;stroke-width:.25px;}.f{fill:#020202;}.e{fill:#6fc499;}.g{fill:#5d9bd3;}.h{fill:#231f20;}</style></defs><g id="a"/><g id="b"><g id="c"><g><rect class="h" x="11.06" y="1.36" width="6.8" height=".44" rx=".22" ry=".22"/><circle class="d" cx="14.46" cy="33.37" r="1.46"/><polyline class="e" points="4.07 21.34 .21 17.48 4.1 15.42"/><polyline class="e" points="5.33 15.24 14.54 10.4 28.11 17.62 14.46 31.27 5.33 22.15"/><path class="f" d="M23.51,21.03v-.02c-.52-.79-1.42-.87-2.66-1.17-.11-.03-.35,.06-.33-.05,.18-.97-1.53-2.98-1.57-3.65,.05-.02,.1-.04,.13-.06,.01,0,.02-.01,.03-.02,.78-.71,.37-2.76,.15-2.91-.18-.12-.82,.74-.82,.74-.54-.14-.94,0-.94,0-.16-.32-.79-.76-.79-.76-.42,.46-.55,2.73,.25,3.04,.04,.01,.08,.02,.13,.03-.01,.02-.04,.02-.05,.05-.3,.83-.39,3.15,.13,4.04,.03,.06,.03,.12,0,.18-.18,.36,.05,.68,.49,.41,.06-.04,.15-.05,.2,0,.07,.06,.22,.42,.65-.02,.06-.06,.15-.07,.22-.04,.29,.14,.87,.24,1.13,.06,.31-.2,4.06-.12,2.49,1.06-.02,.01-.03,.03-.04,.04-.51,.69,1.67,.05,1.19-.97Z"/><path class="f" d="M15.24,14.31c.29-.23,1.15-2.22,.5-2.51,.84-3.03-.76-1.59-1.12-.94,0,0-1.12-.52-1.67-.13,0,0-.52-.91-1.15-.89,0,0-.08,.03-.15,.03s-.28,1.04,.1,1.86c-.47,0-.35,1.41-.35,1.41,0,0-1.39,.67-3.07,.44-.93-.11-1.39,.01-1.68,.17h0c-.72-.53-1.32-.32-1.32-.32v3.7s.11-1.24,.32-2.13c-.07,.5-.06,1.08,.01,1.32,.14,.45-.15,1.18-.12,2.68,.54,.55-.03,1.8,1.04,2.94,1.34,.23,1.27-.53,.65-.96-.96-.54,.3-2.56,.83-3.77,.06,.41-.3,1.45-.46,1.52-.18,.08-.18,1.61,.43,2.26,.37,.13,.64-.2,.3-.5-.63-.42,.69-2.51,.54-3.18,1.18,1.01,1.44,.73,1.44,.73l.08,.6c.26,.55-.26,3.29,.94,3.89,.76,.37,1.3-.26,.55-.94-.34-.42,.08-2.77,.21-3.45,0,0,.18,.1,.44,0,.37,.44-.1,1.46,.05,2.69,.16,1.23,1.36,1.77,1.85,1.38,0,0,.5-.18-.7-1.1-.6-.94,1.04-3.55,.65-4.28,0,0,1.33-2.3,.86-2.53Zm-9.02-.24c-.06,.04-.12,.07-.19,.07,.07-.02,.13-.05,.19-.07Z"/><path class="g" d="M23.46,0H5.46c-.73,0-1.32,.59-1.32,1.32V33.95c0,.73,.59,1.32,1.32,1.32H23.46c.73,0,1.32-.59,1.32-1.32V1.32c0-.73-.59-1.32-1.32-1.32Zm.13,22.21v8.14c0,.51-.41,.93-.93,.93H6.26c-.51,0-.93-.41-.93-.93V4.19c0-.51,.41-.93,.93-.93H22.66c.51,0,.93,.41,.93,.93V22.21Z"/><circle class="d" cx="14.46" cy="33.37" r="1.46"/><rect class="h" x="11.06" y="1.36" width="6.8" height=".44" rx=".22" ry=".22"/></g></g></g></svg>