<?xml version="1.0" encoding="UTF-8"?><svg xmlns="http://www.w3.org/2000/svg" viewBox="0 0 40.3 30.85"><defs><style>.d,.e,.f{stroke:#231f20;stroke-miterlimit:10;}.d,.g,.f{fill:none;}.e{stroke-width:.25px;}.e,.h{fill:#231f20;}.f{stroke-width:.75px;}</style></defs><g id="a"/><g id="b"><g id="c"><g><rect class="f" x=".87" y="5.1" width="3.18" height="8.56" rx="1.59" ry="1.59"/><path class="h" d="M8.5,3.03c-.86,1.06-1.85,2.02-2.93,2.85-.14,.11,0,.35,.14,.24,1.1-.85,2.11-1.82,2.99-2.9,.11-.14-.08-.33-.19-.19h0Z"/><path class="h" d="M8.38,4.35c-.56,.62-1.19,1.17-1.89,1.63-.15,.1,0,.33,.14,.24,.72-.47,1.37-1.03,1.95-1.67,.12-.13-.08-.33-.19-.19h0Z"/><g><path class="d" d="M8.19,17.13h7.91c.62,0,1.21-.28,1.6-.77l.41-.51c.78-.98,2.28-.93,2.99,.09l.31,.44c.33,.47,.88,.76,1.46,.76h8.28c2.28,0,4.14-1.86,4.14-4.14V4.64c0-2.28-1.86-4.14-4.14-4.14H8.19c-2.28,0-4.14,1.86-4.14,4.14V13c0,2.28,1.86,4.14,4.14,4.14Z"/><path class="g" d="M38.84,8.17v1.73c.07-.71,.07-1.3,0-1.73Z"/><path class="f" d="M38.84,8.17v-1.26c0-.88-.72-1.59-1.59-1.59s-1.59,.72-1.59,1.59v5.38c0,.88,.72,1.59,1.59,1.59,.28,0,.54-.08,.77-.21,.44-1.43,.72-2.73,.82-3.78v-1.73Z"/><path class="e" d="M38.84,8.17c.07,.42,.07,1.02,0,1.73v2.4c0,.6-.34,1.11-.82,1.38-2.04,6.58-7.76,15.74-18.15,13.87C5.69,24.99,1.38,13.66,1.38,13.66l-.51-5.49C-1.96,15.25,3.09,27.16,18.76,30.56c15.76,2.12,25.04-17.44,20.08-22.39Z"/><path class="e" d="M38.84,12.3v-2.4c-.11,1.05-.38,2.35-.82,3.78,.49-.27,.82-.79,.82-1.38Z"/></g></g></g></g></svg>